<?xml version="1.0" encoding="UTF-8"?>
<svg xmlns="http://www.w3.org/2000/svg" xmlns:xlink="http://www.w3.org/1999/xlink" width="19px" height="24px" viewBox="0 0 19 24" version="1.1">
<g id="surface1">
<path style=" stroke:none;fill-rule:nonzero;fill:rgb(38.431373%,85.490197%,98.431373%);fill-opacity:1;" d="M 6.410156 0 C 6.675781 0 6.675781 0 6.777344 0.0117188 C 6.851562 0.0195312 6.929688 0.0273438 7.007812 0.03125 C 7.105469 0.0390625 7.199219 0.046875 7.292969 0.0585938 C 7.328125 0.0625 7.359375 0.0664062 7.394531 0.0703125 C 7.410156 0.0703125 7.425781 0.0742188 7.445312 0.0742188 C 7.492188 0.078125 7.542969 0.0859375 7.589844 0.0898438 C 8.6875 0.207031 9.773438 0.371094 10.855469 0.585938 C 10.867188 0.585938 10.875 0.589844 10.886719 0.589844 C 10.945312 0.601562 11.003906 0.613281 11.066406 0.628906 C 11.078125 0.628906 11.089844 0.632812 11.101562 0.632812 C 11.15625 0.644531 11.203125 0.65625 11.25 0.679688 C 11.320312 0.710938 11.390625 0.726562 11.46875 0.742188 C 11.558594 0.757812 11.648438 0.777344 11.734375 0.804688 C 11.832031 0.835938 11.933594 0.851562 12.039062 0.867188 C 12.113281 0.875 12.183594 0.890625 12.257812 0.90625 C 12.269531 0.910156 12.269531 0.910156 12.285156 0.914062 C 12.355469 0.933594 12.355469 0.933594 12.371094 0.945312 C 12.390625 0.953125 12.410156 0.957031 12.429688 0.957031 C 12.507812 0.972656 12.582031 0.996094 12.660156 1.015625 C 12.671875 1.019531 12.6875 1.023438 12.703125 1.03125 C 12.75 1.042969 12.796875 1.058594 12.84375 1.070312 C 12.859375 1.074219 12.875 1.082031 12.890625 1.085938 C 14.042969 1.425781 15.191406 1.839844 16.390625 2.519531 C 16.402344 2.527344 16.417969 2.535156 16.429688 2.542969 C 16.785156 2.75 17.125 2.980469 17.445312 3.242188 C 17.46875 3.261719 17.492188 3.28125 17.519531 3.304688 C 17.636719 3.398438 17.746094 3.5 17.851562 3.605469 C 17.878906 3.628906 17.90625 3.65625 17.933594 3.679688 C 18.027344 3.777344 18.121094 3.871094 18.203125 3.976562 C 18.21875 3.996094 18.234375 4.015625 18.253906 4.035156 C 18.367188 4.171875 18.46875 4.316406 18.5625 4.46875 C 18.570312 4.484375 18.570312 4.484375 18.578125 4.5 C 18.710938 4.71875 18.816406 4.949219 18.894531 5.191406 C 18.898438 5.203125 18.902344 5.214844 18.90625 5.230469 C 18.984375 5.476562 19.007812 5.722656 19.007812 5.980469 C 19.007812 6.027344 19.007812 6.074219 19.007812 6.121094 C 19.007812 6.402344 18.96875 6.671875 18.871094 6.9375 C 18.867188 6.949219 18.863281 6.964844 18.855469 6.980469 C 18.695312 7.429688 18.433594 7.828125 18.113281 8.183594 C 18.101562 8.199219 18.085938 8.210938 18.074219 8.226562 C 18 8.3125 17.921875 8.390625 17.839844 8.46875 C 17.816406 8.492188 17.792969 8.515625 17.765625 8.539062 C 17.675781 8.628906 17.578125 8.710938 17.476562 8.792969 C 17.460938 8.804688 17.445312 8.816406 17.429688 8.828125 C 16.914062 9.265625 16.3125 9.601562 15.707031 9.90625 C 15.679688 9.917969 15.652344 9.933594 15.625 9.945312 C 14.710938 10.40625 13.722656 10.734375 12.738281 11.019531 C 12.660156 11.042969 12.578125 11.066406 12.5 11.089844 C 12.457031 11.101562 12.414062 11.109375 12.371094 11.113281 C 12.339844 11.121094 12.3125 11.128906 12.285156 11.140625 C 12.171875 11.171875 12.058594 11.199219 11.9375 11.210938 C 11.792969 11.234375 11.648438 11.273438 11.507812 11.316406 C 11.457031 11.328125 11.402344 11.335938 11.351562 11.34375 C 11.316406 11.351562 11.289062 11.363281 11.257812 11.378906 C 11.171875 11.414062 11.085938 11.433594 10.992188 11.449219 C 10.976562 11.453125 10.957031 11.457031 10.941406 11.460938 C 10.800781 11.488281 10.800781 11.488281 10.734375 11.488281 C 10.734375 11.496094 10.734375 11.503906 10.734375 11.511719 C 10.746094 11.515625 10.746094 11.515625 10.761719 11.515625 C 10.851562 11.523438 10.941406 11.539062 11.03125 11.558594 C 11.050781 11.5625 11.050781 11.5625 11.070312 11.566406 C 11.136719 11.578125 11.191406 11.59375 11.25 11.621094 C 11.320312 11.652344 11.394531 11.667969 11.46875 11.679688 C 11.558594 11.699219 11.648438 11.71875 11.734375 11.746094 C 11.832031 11.773438 11.933594 11.792969 12.039062 11.804688 C 12.113281 11.816406 12.183594 11.828125 12.257812 11.847656 C 12.265625 11.851562 12.277344 11.851562 12.285156 11.855469 C 12.355469 11.871094 12.355469 11.871094 12.371094 11.886719 C 12.390625 11.890625 12.410156 11.894531 12.429688 11.898438 C 12.507812 11.914062 12.582031 11.933594 12.65625 11.957031 C 12.671875 11.960938 12.6875 11.964844 12.699219 11.96875 C 12.746094 11.980469 12.792969 11.996094 12.839844 12.007812 C 12.855469 12.015625 12.871094 12.019531 12.890625 12.023438 C 13.816406 12.296875 14.71875 12.625 15.589844 13.039062 C 15.621094 13.054688 15.648438 13.066406 15.679688 13.082031 C 16.082031 13.273438 16.476562 13.492188 16.84375 13.742188 C 16.855469 13.746094 16.863281 13.753906 16.875 13.761719 C 17.078125 13.898438 17.273438 14.039062 17.460938 14.195312 C 17.46875 14.203125 17.476562 14.207031 17.484375 14.214844 C 17.652344 14.351562 17.652344 14.351562 17.730469 14.425781 C 17.753906 14.449219 17.777344 14.472656 17.804688 14.492188 C 17.902344 14.578125 17.996094 14.671875 18.082031 14.769531 C 18.09375 14.78125 18.105469 14.796875 18.117188 14.808594 C 18.449219 15.179688 18.714844 15.59375 18.878906 16.058594 C 18.886719 16.078125 18.886719 16.078125 18.890625 16.09375 C 18.90625 16.136719 18.917969 16.179688 18.929688 16.222656 C 18.933594 16.234375 18.9375 16.242188 18.941406 16.253906 C 19.003906 16.472656 19.011719 16.6875 19.007812 16.910156 C 19.007812 16.960938 19.007812 17.007812 19.007812 17.054688 C 19.011719 17.285156 18.996094 17.496094 18.929688 17.71875 C 18.925781 17.734375 18.921875 17.75 18.917969 17.765625 C 18.90625 17.804688 18.894531 17.84375 18.878906 17.878906 C 18.875 17.894531 18.871094 17.90625 18.867188 17.917969 C 18.597656 18.660156 18.050781 19.277344 17.433594 19.769531 C 17.425781 19.777344 17.417969 19.785156 17.410156 19.789062 C 16.882812 20.210938 16.296875 20.550781 15.691406 20.851562 C 15.675781 20.859375 15.660156 20.867188 15.644531 20.875 C 14.921875 21.234375 14.160156 21.519531 13.386719 21.765625 C 13.34375 21.777344 13.300781 21.789062 13.257812 21.804688 C 13.085938 21.859375 12.910156 21.910156 12.734375 21.960938 C 12.714844 21.96875 12.691406 21.976562 12.667969 21.984375 C 12.636719 21.992188 12.605469 22 12.574219 22.011719 C 12.5625 22.011719 12.554688 22.015625 12.542969 22.019531 C 12.484375 22.035156 12.429688 22.046875 12.371094 22.054688 C 12.339844 22.0625 12.3125 22.070312 12.285156 22.078125 C 12.171875 22.113281 12.058594 22.136719 11.9375 22.152344 C 11.792969 22.171875 11.648438 22.214844 11.507812 22.253906 C 11.457031 22.269531 11.402344 22.277344 11.351562 22.285156 C 11.316406 22.292969 11.289062 22.300781 11.257812 22.316406 C 11.179688 22.351562 11.097656 22.367188 11.011719 22.386719 C 10.996094 22.386719 10.976562 22.390625 10.960938 22.394531 C 10.914062 22.40625 10.867188 22.414062 10.820312 22.421875 C 10.792969 22.429688 10.761719 22.433594 10.734375 22.441406 C 10.367188 22.511719 10.003906 22.578125 9.636719 22.640625 C 9.625 22.640625 9.609375 22.644531 9.597656 22.648438 C 8.910156 22.757812 8.21875 22.84375 7.527344 22.917969 C 7.511719 22.921875 7.492188 22.921875 7.472656 22.925781 C 7.277344 22.945312 7.082031 22.964844 6.886719 22.976562 C 6.871094 22.980469 6.859375 22.980469 6.84375 22.980469 C 6.832031 22.980469 6.816406 22.984375 6.804688 22.984375 C 6.773438 22.984375 6.742188 22.988281 6.710938 22.992188 C 6.609375 23.003906 6.511719 23 6.410156 23 C 6.410156 22.570312 6.410156 22.136719 6.410156 21.691406 C 6.535156 21.675781 6.65625 21.660156 6.777344 21.652344 C 6.808594 21.648438 6.835938 21.644531 6.867188 21.644531 C 6.882812 21.640625 6.898438 21.640625 6.914062 21.640625 C 7.5 21.589844 8.082031 21.523438 8.664062 21.4375 C 8.6875 21.4375 8.6875 21.4375 8.710938 21.433594 C 9.371094 21.335938 10.027344 21.222656 10.679688 21.089844 C 10.765625 21.070312 10.847656 21.054688 10.929688 21.039062 C 11.066406 21.011719 11.199219 20.984375 11.332031 20.953125 C 11.355469 20.949219 11.378906 20.941406 11.402344 20.9375 C 11.4375 20.929688 11.472656 20.921875 11.507812 20.914062 C 11.566406 20.898438 11.628906 20.886719 11.6875 20.871094 C 11.875 20.832031 12.0625 20.78125 12.242188 20.714844 C 12.324219 20.683594 12.40625 20.660156 12.492188 20.636719 C 12.757812 20.558594 13.023438 20.472656 13.289062 20.386719 C 13.296875 20.382812 13.308594 20.378906 13.316406 20.375 C 14.085938 20.121094 14.839844 19.808594 15.539062 19.410156 C 15.554688 19.402344 15.566406 19.394531 15.582031 19.390625 C 15.738281 19.300781 15.898438 19.207031 16.046875 19.105469 C 16.058594 19.097656 16.066406 19.089844 16.078125 19.085938 C 16.480469 18.8125 16.894531 18.5 17.183594 18.113281 C 17.203125 18.089844 17.21875 18.066406 17.234375 18.046875 C 17.515625 17.683594 17.695312 17.238281 17.628906 16.785156 C 17.554688 16.292969 17.277344 15.890625 16.925781 15.542969 C 16.917969 15.53125 16.90625 15.523438 16.898438 15.511719 C 16.78125 15.394531 16.664062 15.28125 16.527344 15.183594 C 16.511719 15.167969 16.496094 15.15625 16.480469 15.144531 C 16.355469 15.042969 16.222656 14.953125 16.089844 14.863281 C 16.082031 14.855469 16.074219 14.851562 16.066406 14.84375 C 15.820312 14.679688 15.558594 14.53125 15.292969 14.394531 C 15.28125 14.390625 15.269531 14.382812 15.257812 14.375 C 14.324219 13.890625 13.316406 13.511719 12.292969 13.246094 C 12.238281 13.230469 12.191406 13.214844 12.140625 13.195312 C 12.074219 13.167969 12.003906 13.148438 11.933594 13.128906 C 11.921875 13.125 11.90625 13.121094 11.894531 13.117188 C 11.757812 13.082031 11.621094 13.050781 11.484375 13.019531 C 11.457031 13.015625 11.433594 13.007812 11.40625 13.003906 C 11.355469 12.992188 11.304688 12.980469 11.253906 12.96875 C 11.203125 12.957031 11.148438 12.945312 11.097656 12.933594 C 10.960938 12.902344 10.824219 12.875 10.6875 12.851562 C 10.585938 12.832031 10.488281 12.8125 10.386719 12.792969 C 9.683594 12.652344 8.980469 12.542969 8.269531 12.449219 C 8.203125 12.441406 8.136719 12.429688 8.070312 12.421875 C 7.996094 12.40625 7.917969 12.398438 7.839844 12.390625 C 7.816406 12.386719 7.816406 12.386719 7.796875 12.382812 C 7.75 12.378906 7.703125 12.375 7.65625 12.371094 C 7.640625 12.367188 7.625 12.367188 7.609375 12.363281 C 7.3125 12.332031 7.011719 12.304688 6.710938 12.28125 C 6.695312 12.28125 6.679688 12.277344 6.664062 12.277344 C 6.632812 12.273438 6.601562 12.273438 6.574219 12.269531 C 6.558594 12.269531 6.546875 12.269531 6.53125 12.265625 C 6.519531 12.265625 6.507812 12.265625 6.496094 12.265625 C 6.464844 12.261719 6.464844 12.261719 6.410156 12.246094 C 6.410156 11.753906 6.410156 11.261719 6.410156 10.753906 C 6.535156 10.738281 6.65625 10.722656 6.777344 10.710938 C 6.808594 10.707031 6.835938 10.707031 6.867188 10.703125 C 6.882812 10.703125 6.898438 10.699219 6.914062 10.699219 C 7.5 10.648438 8.082031 10.585938 8.664062 10.5 C 8.679688 10.496094 8.695312 10.496094 8.710938 10.492188 C 9.371094 10.394531 10.027344 10.285156 10.679688 10.148438 C 10.765625 10.132812 10.847656 10.113281 10.929688 10.097656 C 11.066406 10.074219 11.199219 10.042969 11.332031 10.011719 C 11.355469 10.007812 11.378906 10.003906 11.402344 9.996094 C 11.4375 9.988281 11.472656 9.980469 11.507812 9.972656 C 11.566406 9.960938 11.628906 9.945312 11.6875 9.933594 C 11.875 9.890625 12.0625 9.839844 12.242188 9.773438 C 12.324219 9.742188 12.40625 9.71875 12.492188 9.695312 C 12.757812 9.617188 13.023438 9.535156 13.289062 9.445312 C 13.296875 9.441406 13.308594 9.4375 13.316406 9.4375 C 14.085938 9.179688 14.839844 8.867188 15.539062 8.472656 C 15.554688 8.464844 15.566406 8.457031 15.582031 8.449219 C 15.738281 8.359375 15.898438 8.265625 16.046875 8.164062 C 16.058594 8.160156 16.066406 8.152344 16.078125 8.144531 C 16.480469 7.875 16.894531 7.5625 17.183594 7.171875 C 17.203125 7.148438 17.21875 7.128906 17.234375 7.105469 C 17.515625 6.746094 17.695312 6.300781 17.628906 5.84375 C 17.554688 5.355469 17.277344 4.949219 16.925781 4.601562 C 16.917969 4.59375 16.90625 4.582031 16.898438 4.574219 C 16.78125 4.457031 16.664062 4.34375 16.527344 4.242188 C 16.511719 4.230469 16.496094 4.21875 16.480469 4.207031 C 16.355469 4.105469 16.222656 4.011719 16.089844 3.921875 C 16.078125 3.914062 16.078125 3.914062 16.066406 3.90625 C 15.820312 3.738281 15.558594 3.59375 15.292969 3.457031 C 15.28125 3.449219 15.269531 3.445312 15.257812 3.4375 C 14.324219 2.953125 13.316406 2.574219 12.292969 2.304688 C 12.238281 2.292969 12.191406 2.277344 12.140625 2.257812 C 12.074219 2.230469 12.003906 2.207031 11.933594 2.1875 C 11.921875 2.183594 11.90625 2.183594 11.894531 2.179688 C 11.757812 2.140625 11.621094 2.109375 11.484375 2.082031 C 11.457031 2.074219 11.433594 2.070312 11.40625 2.0625 C 11.355469 2.050781 11.304688 2.039062 11.253906 2.027344 C 11.203125 2.015625 11.148438 2.003906 11.097656 1.992188 C 10.960938 1.960938 10.824219 1.933594 10.6875 1.910156 C 10.585938 1.890625 10.488281 1.871094 10.386719 1.851562 C 9.683594 1.710938 8.980469 1.601562 8.269531 1.507812 C 8.203125 1.5 8.136719 1.492188 8.070312 1.480469 C 7.996094 1.46875 7.917969 1.457031 7.839844 1.449219 C 7.824219 1.449219 7.8125 1.445312 7.796875 1.445312 C 7.75 1.441406 7.703125 1.433594 7.65625 1.429688 C 7.640625 1.429688 7.625 1.425781 7.609375 1.425781 C 7.3125 1.390625 7.011719 1.367188 6.710938 1.339844 C 6.695312 1.339844 6.679688 1.339844 6.664062 1.335938 C 6.632812 1.335938 6.601562 1.332031 6.574219 1.332031 C 6.550781 1.328125 6.550781 1.328125 6.53125 1.328125 C 6.519531 1.328125 6.507812 1.324219 6.496094 1.324219 C 6.464844 1.320312 6.464844 1.320312 6.410156 1.308594 C 6.410156 0.875 6.410156 0.445312 6.410156 0 Z M 6.410156 0 "/>
<path style=" stroke:none;fill-rule:nonzero;fill:rgb(38.431373%,85.490197%,98.431373%);fill-opacity:1;" d="M 4.078125 9.191406 C 4.089844 9.199219 4.089844 9.199219 4.101562 9.203125 C 4.628906 9.480469 5.035156 9.921875 5.285156 10.445312 C 5.292969 10.460938 5.300781 10.476562 5.308594 10.492188 C 5.4375 10.773438 5.519531 11.082031 5.523438 11.390625 C 5.523438 11.402344 5.523438 11.414062 5.523438 11.425781 C 5.523438 11.453125 5.523438 11.480469 5.523438 11.503906 C 5.523438 11.542969 5.523438 11.582031 5.523438 11.621094 C 5.523438 11.828125 5.503906 12.027344 5.445312 12.226562 C 5.445312 12.238281 5.441406 12.246094 5.4375 12.257812 C 5.3125 12.699219 5.082031 13.085938 4.753906 13.414062 C 4.738281 13.433594 4.71875 13.453125 4.703125 13.46875 C 4.351562 13.820312 3.875 14.054688 3.390625 14.167969 C 3.375 14.171875 3.355469 14.175781 3.339844 14.179688 C 2.644531 14.328125 1.882812 14.199219 1.285156 13.828125 C 1.027344 13.660156 0.796875 13.46875 0.605469 13.234375 C 0.59375 13.222656 0.582031 13.207031 0.570312 13.195312 C 0.128906 12.660156 -0.0585938 11.945312 0.0117188 11.265625 C 0.09375 10.582031 0.429688 9.921875 0.988281 9.488281 C 1.003906 9.480469 1.015625 9.46875 1.03125 9.457031 C 1.042969 9.449219 1.054688 9.4375 1.070312 9.425781 C 1.910156 8.769531 3.140625 8.695312 4.078125 9.191406 Z M 4.078125 9.191406 "/>
<path style=" stroke:none;fill-rule:nonzero;fill:rgb(90.980393%,97.647059%,99.607843%);fill-opacity:1;" d="M 18.984375 17.210938 C 18.992188 17.210938 18.996094 17.210938 19 17.210938 C 19.050781 17.90625 18.5625 18.621094 18.117188 19.125 C 18.007812 19.246094 17.894531 19.363281 17.777344 19.476562 C 17.769531 19.472656 17.761719 19.46875 17.75 19.464844 C 17.761719 19.457031 17.769531 19.445312 17.78125 19.4375 C 17.847656 19.371094 17.914062 19.308594 17.972656 19.238281 C 18 19.207031 18.03125 19.175781 18.0625 19.144531 C 18.574219 18.597656 18.878906 17.9375 18.984375 17.210938 Z M 18.984375 17.210938 "/>
<path style=" stroke:none;fill-rule:nonzero;fill:rgb(92.156863%,98.039216%,99.607843%);fill-opacity:1;" d="M 17.75 14.460938 C 17.808594 14.484375 17.847656 14.527344 17.890625 14.570312 C 17.898438 14.578125 17.910156 14.585938 17.917969 14.59375 C 17.972656 14.652344 18.027344 14.707031 18.082031 14.769531 C 18.09375 14.78125 18.105469 14.796875 18.117188 14.808594 C 18.570312 15.3125 19.046875 16.042969 19 16.742188 C 18.996094 16.742188 18.992188 16.742188 18.984375 16.742188 C 18.984375 16.730469 18.984375 16.730469 18.984375 16.714844 C 18.9375 16.398438 18.867188 16.105469 18.738281 15.808594 C 18.734375 15.800781 18.730469 15.789062 18.726562 15.78125 C 18.589844 15.464844 18.390625 15.175781 18.164062 14.914062 C 18.144531 14.894531 18.144531 14.894531 18.128906 14.875 C 18.046875 14.78125 17.964844 14.691406 17.875 14.601562 C 17.832031 14.554688 17.789062 14.511719 17.75 14.460938 Z M 17.75 14.460938 "/>
<path style=" stroke:none;fill-rule:nonzero;fill:rgb(64.313728%,91.37255%,98.823529%);fill-opacity:1;" d="M 0.988281 9.484375 C 0.996094 9.488281 1.007812 9.496094 1.015625 9.5 C 0.917969 9.59375 0.816406 9.691406 0.714844 9.792969 C 0.703125 9.789062 0.695312 9.785156 0.6875 9.777344 C 0.78125 9.675781 0.878906 9.578125 0.988281 9.484375 Z M 0.988281 9.484375 "/>
<path style=" stroke:none;fill-rule:nonzero;fill:rgb(94.509804%,98.431373%,99.607843%);fill-opacity:1;" d="M 18.945312 17.558594 C 18.96875 17.613281 18.949219 17.660156 18.933594 17.714844 C 18.929688 17.722656 18.925781 17.730469 18.925781 17.742188 C 18.917969 17.765625 18.910156 17.789062 18.902344 17.808594 C 18.886719 17.765625 18.890625 17.730469 18.902344 17.683594 C 18.902344 17.671875 18.90625 17.660156 18.910156 17.644531 C 18.917969 17.613281 18.929688 17.585938 18.945312 17.558594 Z M 18.945312 17.558594 "/>
<path style=" stroke:none;fill-rule:nonzero;fill:rgb(84.313726%,96.078432%,99.215686%);fill-opacity:1;" d="M 18.957031 17.382812 C 18.964844 17.382812 18.96875 17.382812 18.972656 17.382812 C 18.972656 17.441406 18.972656 17.496094 18.972656 17.558594 C 18.964844 17.558594 18.953125 17.558594 18.945312 17.558594 C 18.941406 17.566406 18.9375 17.574219 18.929688 17.582031 C 18.945312 17.441406 18.945312 17.441406 18.957031 17.382812 Z M 18.957031 17.382812 "/>
</g>
</svg>
